{
  "accessors": [
    {
      "bufferView": 2,
      "componentType": 5126,
      "count": 36777,
      "max": [
        0.74082702398300171,
        0.54544198513031006,
        -0.65820801258087158
      ],
      "min": [
        -0.23106400668621063,
        -0.39036199450492859,
        -1.5151259899139404
      ],
      "type": "VEC3"
    },
    {
      "bufferView": 2,
      "byteOffset": 441324,
      "componentType": 5126,
      "count": 36777,
      "max": [
        0.99999946355819702,
        0.99999457597732544,
        0.99998873472213745
      ],
      "min": [
        -0.99999195337295532,
        -0.99999892711639404,
        -1
      ],
      "type": "VEC3"
    },
    {
      "bufferView": 3,
      "componentType": 5126,
      "count": 36777,
      "max": [
        0.99999994039535522,
        0.99845552444458008,
        0.99985158443450928,
        1
      ],
      "min": [
        -0.99392306804656982,
        -0.99967223405838013,
        -0.99992907047271729,
        1
      ],
      "type": "VEC4"
    },
    {
      "bufferView": 1,
      "componentType": 5126,
      "count": 36777,
      "max": [
        0.97767001390457153,
        0.57033002376556396
      ],
      "min": [
        0.62817001342773438,
        0.0026199999265372753
      ],
      "type": "VEC2"
    },
    {
      "bufferView": 0,
      "componentType": 5125,
      "count": 216924,
      "max": [
        36776
      ],
      "min": [
        0
      ],
      "type": "SCALAR"
    },
    {
      "bufferView": 2,
      "byteOffset": 882648,
      "componentType": 5126,
      "count": 65532,
      "max": [
        0.54493600130081177,
        0.23432999849319458,
        1.4076759815216064
      ],
      "min": [
        -0.44851800799369812,
        -0.39014101028442383,
        -0.88828599452972412
      ],
      "type": "VEC3"
    },
    {
      "bufferView": 2,
      "byteOffset": 1669032,
      "componentType": 5126,
      "count": 65532,
      "max": [
        0.99998575448989868,
        0.99995416402816772,
        0.99998664855957031
      ],
      "min": [
        -0.999961256980896,
        -0.99999451637268066,
        -0.99968910217285156
      ],
      "type": "VEC3"
    },
    {
      "bufferView": 3,
      "byteOffset": 588432,
      "componentType": 5126,
      "count": 65532,
      "max": [
        0.99999487400054932,
        0.99995380640029907,
        0.99998342990875244,
        1
      ],
      "min": [
        -0.99995231628417969,
        -0.99996459484100342,
        -0.99995803833007812,
        -1
      ],
      "type": "VEC4"
    },
    {
      "bufferView": 1,
      "byteOffset": 294216,
      "componentType": 5126,
      "count": 65532,
      "max": [
        0.67567002773284912,
        0.64869999885559082
      ],
      "min": [
        0.024940000846982002,
        0.0019499999471008778
      ],
      "type": "VEC2"
    },
    {
      "bufferView": 0,
      "byteOffset": 867696,
      "componentType": 5125,
      "count": 333087,
      "max": [
        65531
      ],
      "min": [
        0
      ],
      "type": "SCALAR"
    },
    {
      "bufferView": 2,
      "byteOffset": 2455416,
      "componentType": 5126,
      "count": 65532,
      "max": [
        0.68281400203704834,
        0.23502500355243683,
        1.4237829446792603
      ],
      "min": [
        -0.33612900972366333,
        -0.41745400428771973,
        -1.397678017616272
      ],
      "type": "VEC3"
    },
    {
      "bufferView": 2,
      "byteOffset": 3241800,
      "componentType": 5126,
      "count": 65532,
      "max": [
        0.99999707937240601,
        0.99991965293884277,
        0.99944120645523071
      ],
      "min": [
        -0.9999927282333374,
        -0.99990397691726685,
        -0.99999874830245972
      ],
      "type": "VEC3"
    },
    {
      "bufferView": 3,
      "byteOffset": 1636944,
      "componentType": 5126,
      "count": 65532,
      "max": [
        0.99994689226150513,
        0.99994575977325439,
        0.99995476007461548,
        1
      ],
      "min": [
        -0.9999997615814209,
        -0.99981313943862915,
        -0.99996423721313477,
        -1
      ],
      "type": "VEC4"
    },
    {
      "bufferView": 1,
      "byteOffset": 818472,
      "componentType": 5126,
      "count": 65532,
      "max": [
        0.54382997751235962,
        0.83319997787475586
      ],
      "min": [
        0.0019499999471008778,
        0.00559999980032444
      ],
      "type": "VEC2"
    },
    {
      "bufferView": 0,
      "byteOffset": 2200044,
      "componentType": 5125,
      "count": 326124,
      "max": [
        65531
      ],
      "min": [
        0
      ],
      "type": "SCALAR"
    },
    {
      "bufferView": 2,
      "byteOffset": 4028184,
      "componentType": 5126,
      "count": 65532,
      "max": [
        0.6797950267791748,
        0.23022200167179108,
        1.4307509660720825
      ],
      "min": [
        -0.30719399452209473,
        -0.38067799806594849,
        -1.3523479700088501
      ],
      "type": "VEC3"
    },
    {
      "bufferView": 2,
      "byteOffset": 4814568,
      "componentType": 5126,
      "count": 65532,
      "max": [
        0.99997258186340332,
        0.99999940395355225,
        0.99999654293060303
      ],
      "min": [
        -0.99998635053634644,
        -0.99995887279510498,
        -0.9999956488609314
      ],
      "type": "VEC3"
    },
    {
      "bufferView": 3,
      "byteOffset": 2685456,
      "componentType": 5126,
      "count": 65532,
      "max": [
        0.99999523162841797,
        0.99990642070770264,
        0.99999523162841797,
        1
      ],
      "min": [
        -0.99985325336456299,
        -0.99999135732650757,
        -0.99993634223937988,
        -1
      ],
      "type": "VEC4"
    },
    {
      "bufferView": 1,
      "byteOffset": 1342728,
      "componentType": 5126,
      "count": 65532,
      "max": [
        0.81449997425079346,
        0.77749001979827881
      ],
      "min": [
        0.01826000027358532,
        0.0021299999207258224
      ],
      "type": "VEC2"
    },
    {
      "bufferView": 0,
      "byteOffset": 3504540,
      "componentType": 5125,
      "count": 325152,
      "max": [
        65531
      ],
      "min": [
        0
      ],
      "type": "SCALAR"
    },
    {
      "bufferView": 2,
      "byteOffset": 5600952,
      "componentType": 5126,
      "count": 65532,
      "max": [
        0.66224300861358643,
        0.23315200209617615,
        1.3952349424362183
      ],
      "min": [
        -0.35751700401306152,
        -0.41872501373291016,
        -1.397879958152771
      ],
      "type": "VEC3"
    },
    {
      "bufferView": 2,
      "byteOffset": 6387336,
      "componentType": 5126,
      "count": 65532,
      "max": [
        0.9999958872795105,
        0.99997550249099731,
        0.99980109930038452
      ],
      "min": [
        -0.99997437000274658,
        -0.99998986721038818,
        -0.99999874830245972
      ],
      "type": "VEC3"
    },
    {
      "bufferView": 3,
      "byteOffset": 3733968,
      "componentType": 5126,
      "count": 65532,
      "max": [
        0.99993503093719482,
        0.99994575977325439,
        0.99993574619293213,
        1
      ],
      "min": [
        -0.99993067979812622,
        -0.99990880489349365,
        -0.99992799758911133,
        -1
      ],
      "type": "VEC4"
    },
    {
      "bufferView": 1,
      "byteOffset": 1866984,
      "componentType": 5126,
      "count": 65532,
      "max": [
        0.81112998723983765,
        0.82874000072479248
      ],
      "min": [
        0.0046600000932812691,
        0.0065399999730288982
      ],
      "type": "VEC2"
    },
    {
      "bufferView": 0,
      "byteOffset": 4805148,
      "componentType": 5125,
      "count": 279375,
      "max": [
        65531
      ],
      "min": [
        0
      ],
      "type": "SCALAR"
    },
    {
      "bufferView": 2,
      "byteOffset": 7173720,
      "componentType": 5126,
      "count": 47933,
      "max": [
        0.68281400203704834,
        0.22592000663280487,
        1.4311189651489258
      ],
      "min": [
        -0.44626200199127197,
        -0.41465699672698975,
        -1.3908079862594604
      ],
      "type": "VEC3"
    },
    {
      "bufferView": 2,
      "byteOffset": 7748916,
      "componentType": 5126,
      "count": 47933,
      "max": [
        0.99988800287246704,
        0.99996519088745117,
        0.99998033046722412
      ],
      "min": [
        -0.9999927282333374,
        -0.99996072053909302,
        -0.99997419118881226
      ],
      "type": "VEC3"
    },
    {
      "bufferView": 3,
      "byteOffset": 4782480,
      "componentType": 5126,
      "count": 47933,
      "max": [
        0.99999523162841797,
        0.99961578845977783,
        0.99997037649154663,
        1
      ],
      "min": [
        -0.9999997615814209,
        -0.99995583295822144,
        -0.99991953372955322,
        -1
      ],
      "type": "VEC4"
    },
    {
      "bufferView": 1,
      "byteOffset": 2391240,
      "componentType": 5126,
      "count": 47933,
      "max": [
        0.81130999326705933,
        0.82937997579574585
      ],
      "min": [
        0.0033700000494718552,
        0.0026599999982863665
      ],
      "type": "VEC2"
    },
    {
      "bufferView": 0,
      "byteOffset": 5922648,
      "componentType": 5125,
      "count": 176622,
      "max": [
        47932
      ],
      "min": [
        0
      ],
      "type": "SCALAR"
    },
    {
      "bufferView": 2,
      "byteOffset": 8324112,
      "componentType": 5126,
      "count": 8815,
      "max": [
        0.35476100444793701,
        0.24202699959278107,
        1.0069259405136108
      ],
      "min": [
        -0.28763699531555176,
        -0.3074440062046051,
        -0.35520198941230774
      ],
      "type": "VEC3"
    },
    {
      "bufferView": 2,
      "byteOffset": 8429892,
      "componentType": 5126,
      "count": 8815,
      "max": [
        0.99992555379867554,
        0.99997752904891968,
        0.99768120050430298
      ],
      "min": [
        -0.99998557567596436,
        -0.99999701976776123,
        -0.99963968992233276
      ],
      "type": "VEC3"
    },
    {
      "bufferView": 3,
      "byteOffset": 5549408,
      "componentType": 5126,
      "count": 8815,
      "max": [
        0.98976576328277588,
        0.99878787994384766,
        0.99960243701934814,
        1
      ],
      "min": [
        -0.99606978893280029,
        -0.99942213296890259,
        -0.99975687265396118,
        1
      ],
      "type": "VEC4"
    },
    {
      "bufferView": 1,
      "byteOffset": 2774704,
      "componentType": 5126,
      "count": 8815,
      "max": [
        0.3440299928188324,
        0.99804002046585083
      ],
      "min": [
        0.27136999368667603,
        0.50446999073028564
      ],
      "type": "VEC2"
    },
    {
      "bufferView": 0,
      "byteOffset": 6629136,
      "componentType": 5125,
      "count": 47970,
      "max": [
        8814
      ],
      "min": [
        0
      ],
      "type": "SCALAR"
    }
  ],
  "asset": {
    "extras": {
      "author": "Alexandr..Zhukov (https://sketchfab.com/Alexandr..Zhukov)",
      "license": "CC-BY-4.0 (http://creativecommons.org/licenses/by/4.0/)",
      "source": "https://sketchfab.com/models/f18c62d53bf6470888465db52614c8a0",
      "title": "David"
    },
    "generator": "Sketchfab-4.32.0",
    "version": "2.0"
  },
  "bufferViews": [
    {
      "buffer": 0,
      "byteLength": 6821016,
      "byteOffset": 0,
      "name": "floatBufferViews",
      "target": 34963
    },
    {
      "buffer": 0,
      "byteLength": 2845224,
      "byteOffset": 6821016,
      "byteStride": 8,
      "name": "floatBufferViews",
      "target": 34962
    },
    {
      "buffer": 0,
      "byteLength": 8535672,
      "byteOffset": 9666240,
      "byteStride": 12,
      "name": "floatBufferViews",
      "target": 34962
    },
    {
      "buffer": 0,
      "byteLength": 5690448,
      "byteOffset": 18201912,
      "byteStride": 16,
      "name": "floatBufferViews",
      "target": 34962
    }
  ],
  "buffers": [
    {
      "byteLength": 23892360,
      "uri": "scene.bin"
    }
  ],
  "images": [
    {
      "uri": "textures/material_0_metallicRoughness.png"
    },
    {
      "uri": "textures/material_0_normal.jpeg"
    }
  ],
  "materials": [
    {
      "doubleSided": true,
      "name": "material_0",
      "normalTexture": {
        "index": 1,
        "scale": 1,
        "texCoord": 0
      },
      "occlusionTexture": {
        "index": 0,
        "strength": 1,
        "texCoord": 0
      },
      "pbrMetallicRoughness": {
        "baseColorFactor": [
          1,
          1,
          1,
          1
        ],
        "metallicFactor": 0,
        "roughnessFactor": 0.59999999999999998
      }
    }
  ],
  "meshes": [
    {
      "primitives": [
        {
          "attributes": {
            "NORMAL": 1,
            "POSITION": 0,
            "TANGENT": 2,
            "TEXCOORD_0": 3
          },
          "indices": 4,
          "material": 0,
          "mode": 4
        }
      ]
    },
    {
      "primitives": [
        {
          "attributes": {
            "NORMAL": 6,
            "POSITION": 5,
            "TANGENT": 7,
            "TEXCOORD_0": 8
          },
          "indices": 9,
          "material": 0,
          "mode": 4
        }
      ]
    },
    {
      "primitives": [
        {
          "attributes": {
            "NORMAL": 11,
            "POSITION": 10,
            "TANGENT": 12,
            "TEXCOORD_0": 13
          },
          "indices": 14,
          "material": 0,
          "mode": 4
        }
      ]
    },
    {
      "primitives": [
        {
          "attributes": {
            "NORMAL": 16,
            "POSITION": 15,
            "TANGENT": 17,
            "TEXCOORD_0": 18
          },
          "indices": 19,
          "material": 0,
          "mode": 4
        }
      ]
    },
    {
      "primitives": [
        {
          "attributes": {
            "NORMAL": 21,
            "POSITION": 20,
            "TANGENT": 22,
            "TEXCOORD_0": 23
          },
          "indices": 24,
          "material": 0,
          "mode": 4
        }
      ]
    },
    {
      "primitives": [
        {
          "attributes": {
            "NORMAL": 26,
            "POSITION": 25,
            "TANGENT": 27,
            "TEXCOORD_0": 28
          },
          "indices": 29,
          "material": 0,
          "mode": 4
        }
      ]
    },
    {
      "primitives": [
        {
          "attributes": {
            "NORMAL": 31,
            "POSITION": 30,
            "TANGENT": 32,
            "TEXCOORD_0": 33
          },
          "indices": 34,
          "material": 0,
          "mode": 4
        }
      ]
    }
  ],
  "nodes": [
    {
      "children": [
        1
      ],
      "name": "RootNode (gltf orientation matrix)",
      "rotation": [
        -0.70710678118654746,
        -0,
        -0,
        0.70710678118654757
      ]
    },
    {
      "children": [
        2
      ],
      "name": "RootNode (model correction matrix)"
    },
    {
      "children": [
        3,
        4,
        5,
        6,
        7,
        8,
        9
      ],
      "name": "David.obj.cleaner.materialmerger.gles"
    },
    {
      "mesh": 0,
      "name": ""
    },
    {
      "mesh": 1,
      "name": ""
    },
    {
      "mesh": 2,
      "name": ""
    },
    {
      "mesh": 3,
      "name": ""
    },
    {
      "mesh": 4,
      "name": ""
    },
    {
      "mesh": 5,
      "name": ""
    },
    {
      "mesh": 6,
      "name": ""
    }
  ],
  "samplers": [
    {
      "magFilter": 9729,
      "minFilter": 9987,
      "wrapS": 10497,
      "wrapT": 10497
    }
  ],
  "scene": 0,
  "scenes": [
    {
      "name": "OSG_Scene",
      "nodes": [
        0
      ]
    }
  ],
  "textures": [
    {
      "sampler": 0,
      "source": 0
    },
    {
      "sampler": 0,
      "source": 1
    }
  ]
}

